<?xml version="1.0" encoding="utf-8"?>
<!-- Generator: Adobe Illustrator 22.0.1, SVG Export Plug-In . SVG Version: 6.00 Build 0)  -->
<svg version="1.1" id="Layer_1" xmlns="http://www.w3.org/2000/svg" xmlns:xlink="http://www.w3.org/1999/xlink" x="0px" y="0px"
	 viewBox="0 0 100 100" enable-background="new 0 0 100 100" xml:space="preserve">
<title>home</title>
<g id="Layer_2_1_">
	<path d="M91.1,41.1L54.7,4.7l0,0L50,0L8.9,41.1c-2.6,2.6-2.6,6.8,0,9.3l3-3v49c0,1.9,1.5,3.4,3.4,3.4h21.1c0.1,0,0.1,0,0.2,0h26.9
		c0.1,0,0.1,0,0.2,0h21.1c1.9,0,3.4-1.5,3.4-3.4V47.5l2.9,2.9C93.7,47.8,93.7,43.6,91.1,41.1z M60,93.1H40V60.7h20V93.1z M81.3,93.1
		H66.9V57.3c0-1.9-1.5-3.4-3.4-3.4H36.6c-1.9,0-3.4,1.5-3.4,3.4v35.8H18.7V40.7L50,9.4l31.3,31.3V93.1z"/>
</g>
</svg>
