<?xml version="1.0" encoding="UTF-8"?><!DOCTYPE svg PUBLIC "-//W3C//DTD SVG 1.1//EN" "http://www.w3.org/Graphics/SVG/1.1/DTD/svg11.dtd"><svg xmlns="http://www.w3.org/2000/svg"><symbol id="chevron" viewBox="0 0 100 100"><path d="M100 31.9L50 81.6 0 31.9l13.3-13.4L50 55l36.7-36.5L100 31.9z"/></symbol><symbol id="crossMark" viewBox="0 0 100 100"><path d="M57.1 50L100 92.9l-7.1 7.1L50 57.1 7.1 100 0 92.9 42.9 50 0 7.1 7.1 0 50 42.9 92.9 0l7.1 7.1L57.1 50z"/></symbol><symbol id="hamburger" viewBox="0 0 100 100"><path d="M100 12.2H0V4.5h100v7.7zm0 34H0v7.7h100v-7.7zm0 41.6H0v7.7h100v-7.7z"/></symbol><symbol id="home" viewBox="0 0 100 100"><title>home</title><path d="M91.1 41.1L54.7 4.7 50 0 8.9 41.1c-2.6 2.6-2.6 6.8 0 9.3l3-3v49c0 1.9 1.5 3.4 3.4 3.4h69.5c1.9 0 3.4-1.5 3.4-3.4V47.5l2.9 2.9c2.6-2.6 2.6-6.8 0-9.3zM60 93.1H40V60.7h20v32.4zm21.3 0H66.9V57.3c0-1.9-1.5-3.4-3.4-3.4H36.6c-1.9 0-3.4 1.5-3.4 3.4v35.8H18.7V40.7L50 9.4l31.3 31.3v52.4z"/></symbol></svg>